<svg width="32" height="32" viewBox="0 0 32 32" fill="none" xmlns="http://www.w3.org/2000/svg">
<rect width="32" height="32" fill="white"/>
<path fill-rule="evenodd" clip-rule="evenodd" d="M14.07 12.7666C13.2126 12.7592 12.4666 13.2333 12.0657 13.9221C11.8468 13.774 11.5795 13.6777 11.2937 13.6888C10.4809 13.7221 9.90191 14.6443 9.90191 14.6443C8.87752 16.496 6.90297 17.7515 4.6315 17.7515C3.68876 17.7515 2.79427 17.533 2 17.1479C2.97614 19.144 5.03234 20.5217 7.40774 20.5217C9.83881 20.5217 11.9321 19.0848 12.8786 17.0145C14.6601 19.1589 17.351 20.5217 20.3574 20.5217C25.3234 20.5217 29.421 16.8034 30 12C28.2296 14.3702 25.3977 15.9072 22.2057 15.9072C19.8081 15.9035 17.6145 15.0369 15.9221 13.5999C15.8961 13.5629 15.2466 12.7777 14.07 12.7666Z" fill="#363636"/>
</svg>
